# xmcd CD database file
# Copyright (C) 1995-1998 Ti Kan
#
# Track frame offsets:
#	150
#	28688
#	50010
#	68039
#	78427
#	97787
#	110449
#	125974
#
# Disc length: 1954 seconds
#
# Revision: 1
# Processed by: cddbd v1.5.2PL0 Copyright (c) Steve Scherf et al.
# Submitted via: CDex 1.30Release
#
DISCID=6707a008
DTITLE=Mark Potvin - Mark Potvin
DYEAR=2010
DGENRE=Blues
TTITLE0=I Dreamt I Drove To New Orleans
TTITLE1=Don't Roll In The Fire
TTITLE2=Do You Make It Up As You Go Along
TTITLE3=Free Ballin'
TTITLE4=I Want To Be Your Slave
TTITLE5=Friday Night
TTITLE6=Blow Wind Blues
TTITLE7=Still In Love
EXTD=YEAR: 2010 ID3G:   0
EXTT0=
EXTT1=
EXTT2=
EXTT3=
EXTT4=
EXTT5=
EXTT6=
EXTT7=
PLAYORDER=
